<?xml version="1.0" standalone="no"?><!DOCTYPE svg PUBLIC "-//W3C//DTD SVG 1.1//EN" "http://www.w3.org/Graphics/SVG/1.1/DTD/svg11.dtd"><svg t="1717773383019" class="icon" viewBox="0 0 1024 1024" version="1.1" xmlns="http://www.w3.org/2000/svg" p-id="6440" xmlns:xlink="http://www.w3.org/1999/xlink" width="200" height="200"><path d="M0 0h1024v1024H0z" fill="#F04381" p-id="6441"></path><path d="M314.4704 504.9344L465.92 194.5088c15.9232-7.4752 33.7408-17.152 52.8896-8.5504L434.176 361.3184h41.8816v430.848l-53.8624 59.8528-17.9712 5.9904V421.1712L356.352 504.9344h-41.8816z" fill="#FFFFFF" p-id="6442"></path><path d="M625.664 277.504h-107.7248c-9.4208 9.6768-17.2032 22.784-18.8928 36.864l126.6176-0.9728v131.6352h-101.7344c-18.2272 13.0048-22.4256 25.2416-17.9712 35.8912h119.7056v143.616l-109.568-0.256c-10.1888 12.6464-16.0768 25.3952-16.0768 36.1472h125.6448v131.6352h-101.7344c-20.0192 9.984-25.6512 25.1392-24.8832 35.8912h345.9584c2.0992-13.056-7.424-29.7984-21.8624-35.8912h-113.7152v-131.6352h137.6256c0-11.9808-4.0448-23.2448-22.8352-36.1472l-114.7904 0.256V480.9728h137.6256c5.9904-11.9808-9.3184-23.3984-29.9008-35.8912h-107.7248V313.4464h137.6256c5.8368-10.9568-2.2528-23.3984-17.9712-35.8912h-119.7056c-27.8528-0.0512-55.808-0.0512-83.712-0.0512zM241.2032 732.3136l17.92-17.92M265.728 342.528v162.9696l71.3728 0.5632v34.816l-71.3728-0.4096v162.0992c36.5056 1.0752 73.0112 2.1504 109.5168 3.2768 4.0448 2.9696 9.472 7.68 14.4384 14.5408 4.1984 5.7856 6.8096 11.264 8.3968 15.5136-75.3152-0.6144-150.6816-1.28-225.9968-1.8944a137.9328 137.9328 0 0 0 25.6-17.0496c7.5776-6.4512 13.568-12.9024 18.0736-18.5344v-157.5424l-33.4336 0.3072c8.9088-12.7488 17.8176-25.4976 26.7776-38.2464V342.528H265.728zM688.6912 236.1856c-19.2512-0.3584-38.5536-0.768-57.8048-1.1264l1.2288-52.4288 59.0848 1.2288c-0.8192 17.408-1.6384 34.8672-2.5088 52.3264z" fill="#FFFFFF" p-id="6443"></path></svg>